<svg height="410pt" viewBox="0 -25 410.00005 410" width="410pt" xmlns="http://www.w3.org/2000/svg"><path d="m410 122.699219v196.902343c.007812 22.09375-17.90625 40.003907-40 40h-330c-22.09375.003907-40.0078125-17.90625-40-40v-236.902343h214l.300781-1.097657c3.136719.804688 6.363281 1.207032 9.597657 1.199219h146.101562c10.605469-.042969 20.789062 4.144531 28.296875 11.632813 7.507813 7.488281 11.71875 17.660156 11.703125 28.265625zm0 0" fill="#e48e66"/><path d="m205 82.699219h-205v236.902343c-.0078125 22.09375 17.90625 40.003907 40 40h165zm0 0" fill="#d18162"/><path d="m214.199219 81.601562-.300781 1.097657h-213.898438v-42.699219c-.0078125-22.09375 17.90625-40.0078125 40-40h92.101562c14.910157.0078125 28.582032 8.289062 35.5 21.5l20.597657 39.699219c5.359375 10.199219 14.820312 17.625 26 20.402343zm0 0" fill="#f8ec7d"/></svg>